<svg id="visual" viewBox="0 0 1903 100" width="1903" height="100" xmlns="http://www.w3.org/2000/svg" xmlns:xlink="http://www.w3.org/1999/xlink" version="1.1"><path d="M0 33L317 33L317 31L634 31L634 32L952 32L952 6L1269 6L1269 32L1586 32L1586 5L1903 5L1903 18L1903 0L1903 0L1586 0L1586 0L1269 0L1269 0L952 0L952 0L634 0L634 0L317 0L317 0L0 0Z" fill="#e9d7df"></path><path d="M0 52L317 52L317 39L634 39L634 43L952 43L952 51L1269 51L1269 33L1586 33L1586 31L1903 31L1903 18L1903 16L1903 3L1586 3L1586 30L1269 30L1269 4L952 4L952 30L634 30L634 29L317 29L317 31L0 31Z" fill="#9d949f"></path><path d="M0 69L317 69L317 42L634 42L634 45L952 45L952 51L1269 51L1269 51L1586 51L1586 85L1903 85L1903 55L1903 16L1903 29L1586 29L1586 31L1269 31L1269 49L952 49L952 41L634 41L634 37L317 37L317 50L0 50Z" fill="#575760"></path><path d="M0 101L317 101L317 101L634 101L634 101L952 101L952 101L1269 101L1269 101L1586 101L1586 101L1903 101L1903 101L1903 53L1903 83L1586 83L1586 49L1269 49L1269 49L952 49L952 43L634 43L634 40L317 40L317 67L0 67Z" fill="#1c2026"></path></svg>