<svg id="visual" viewBox="0 0 1903 100" width="1903" height="100" xmlns="http://www.w3.org/2000/svg" xmlns:xlink="http://www.w3.org/1999/xlink" version="1.1"><path d="M0 27L106 17L211 28L317 25L423 29L529 9L634 23L740 17L846 13L952 12L1057 12L1163 14L1269 11L1374 15L1480 27L1586 22L1692 12L1797 12L1903 25L1903 0L1797 0L1692 0L1586 0L1480 0L1374 0L1269 0L1163 0L1057 0L952 0L846 0L740 0L634 0L529 0L423 0L317 0L211 0L106 0L0 0Z" fill="#1c2026"></path><path d="M0 40L106 36L211 39L317 39L423 42L529 26L634 40L740 37L846 25L952 30L1057 21L1163 30L1269 25L1374 30L1480 45L1586 42L1692 20L1797 19L1903 42L1903 23L1797 10L1692 10L1586 20L1480 25L1374 13L1269 9L1163 12L1057 10L952 10L846 11L740 15L634 21L529 7L423 27L317 23L211 26L106 15L0 25Z" fill="#484851"></path><path d="M0 69L106 54L211 68L317 54L423 74L529 44L634 61L740 68L846 54L952 57L1057 58L1163 50L1269 68L1374 54L1480 79L1586 55L1692 38L1797 51L1903 58L1903 40L1797 17L1692 18L1586 40L1480 43L1374 28L1269 23L1163 28L1057 19L952 28L846 23L740 35L634 38L529 24L423 40L317 37L211 37L106 34L0 38Z" fill="#79757f"></path><path d="M0 78L106 66L211 76L317 65L423 83L529 60L634 67L740 80L846 61L952 73L1057 75L1163 66L1269 79L1374 66L1480 88L1586 62L1692 49L1797 66L1903 64L1903 56L1797 49L1692 36L1586 53L1480 77L1374 52L1269 66L1163 48L1057 56L952 55L846 52L740 66L634 59L529 42L423 72L317 52L211 66L106 52L0 67Z" fill="#afa5af"></path><path d="M0 101L106 101L211 101L317 101L423 101L529 101L634 101L740 101L846 101L952 101L1057 101L1163 101L1269 101L1374 101L1480 101L1586 101L1692 101L1797 101L1903 101L1903 62L1797 64L1692 47L1586 60L1480 86L1374 64L1269 77L1163 64L1057 73L952 71L846 59L740 78L634 65L529 58L423 81L317 63L211 74L106 64L0 76Z" fill="#e9d7df"></path></svg>